<mxfile host="app.diagrams.net" agent="Mozilla/5.0 (Windows NT 10.0; Win64; x64) AppleWebKit/537.36 (KHTML, like Gecko) Chrome/126.0.0.0 Safari/537.36 OPR/112.0.0.0" version="24.7.12">
  <diagram id="C5RBs43oDa-KdzZeNtuy" name="Page-1">
    <mxGraphModel dx="3994" dy="1194" grid="1" gridSize="10" guides="1" tooltips="1" connect="1" arrows="1" fold="1" page="1" pageScale="1" pageWidth="827" pageHeight="1169" math="0" shadow="0">
      <root>
        <mxCell id="WIyWlLk6GJQsqaUBKTNV-0" />
        <mxCell id="WIyWlLk6GJQsqaUBKTNV-1" parent="WIyWlLk6GJQsqaUBKTNV-0" />
        <mxCell id="QMGaQ8mJVQ0FRmpl6Mxn-31" value="Gestionador" style="swimlane;fontStyle=2;align=center;verticalAlign=top;childLayout=stackLayout;horizontal=1;startSize=26;horizontalStack=0;resizeParent=1;resizeLast=0;collapsible=1;marginBottom=0;rounded=0;shadow=0;strokeWidth=1;" parent="WIyWlLk6GJQsqaUBKTNV-1" vertex="1">
          <mxGeometry x="-136" y="200" width="310" height="140" as="geometry">
            <mxRectangle x="230" y="140" width="160" height="26" as="alternateBounds" />
          </mxGeometry>
        </mxCell>
        <mxCell id="QMGaQ8mJVQ0FRmpl6Mxn-32" value="- mamiferos: Map&lt;String, Mamifero&gt;&#xa;" style="text;align=left;verticalAlign=top;spacingLeft=4;spacingRight=4;overflow=hidden;rotatable=0;points=[[0,0.5],[1,0.5]];portConstraint=eastwest;rounded=0;shadow=0;html=0;whiteSpace=wrap;" parent="QMGaQ8mJVQ0FRmpl6Mxn-31" vertex="1">
          <mxGeometry y="26" width="310" height="24" as="geometry" />
        </mxCell>
        <mxCell id="QMGaQ8mJVQ0FRmpl6Mxn-38" value="" style="line;html=1;strokeWidth=1;align=left;verticalAlign=middle;spacingTop=-1;spacingLeft=3;spacingRight=3;rotatable=0;labelPosition=right;points=[];portConstraint=eastwest;" parent="QMGaQ8mJVQ0FRmpl6Mxn-31" vertex="1">
          <mxGeometry y="50" width="310" height="8" as="geometry" />
        </mxCell>
        <mxCell id="QMGaQ8mJVQ0FRmpl6Mxn-39" value="+ Gestionador()&#xa;+ agregarFelino(clave: String, felino: Felinos): void&#xa;+ agregarPrimate(clave: String, primate: Primates): void &#xa;+ mostrarDatosMamifero(clave: String): String &#xa;+ calcularAlimento(clave: String): String&#xa;" style="text;align=left;verticalAlign=top;spacingLeft=4;spacingRight=4;overflow=hidden;rotatable=0;points=[[0,0.5],[1,0.5]];portConstraint=eastwest;whiteSpace=wrap;" parent="QMGaQ8mJVQ0FRmpl6Mxn-31" vertex="1">
          <mxGeometry y="58" width="310" height="82" as="geometry" />
        </mxCell>
        <mxCell id="QMGaQ8mJVQ0FRmpl6Mxn-44" value="Interfaz" style="swimlane;fontStyle=2;align=center;verticalAlign=top;childLayout=stackLayout;horizontal=1;startSize=26;horizontalStack=0;resizeParent=1;resizeLast=0;collapsible=1;marginBottom=0;rounded=0;shadow=0;strokeWidth=1;" parent="WIyWlLk6GJQsqaUBKTNV-1" vertex="1">
          <mxGeometry x="-210" y="20" width="450" height="100" as="geometry">
            <mxRectangle x="230" y="140" width="160" height="26" as="alternateBounds" />
          </mxGeometry>
        </mxCell>
        <mxCell id="QMGaQ8mJVQ0FRmpl6Mxn-45" value="&#xa;" style="text;align=left;verticalAlign=top;spacingLeft=4;spacingRight=4;overflow=hidden;rotatable=0;points=[[0,0.5],[1,0.5]];portConstraint=eastwest;rounded=0;shadow=0;html=0;whiteSpace=wrap;" parent="QMGaQ8mJVQ0FRmpl6Mxn-44" vertex="1">
          <mxGeometry y="26" width="450" height="14" as="geometry" />
        </mxCell>
        <mxCell id="QMGaQ8mJVQ0FRmpl6Mxn-46" value="" style="line;html=1;strokeWidth=1;align=left;verticalAlign=middle;spacingTop=-1;spacingLeft=3;spacingRight=3;rotatable=0;labelPosition=right;points=[];portConstraint=eastwest;" parent="QMGaQ8mJVQ0FRmpl6Mxn-44" vertex="1">
          <mxGeometry y="40" width="450" height="8" as="geometry" />
        </mxCell>
        <mxCell id="QMGaQ8mJVQ0FRmpl6Mxn-47" value="+ main(String[] args): void&#xa;+ mostrarDetallesYCalcularAlimento(gestionador: Gestionador, clave: String): void&#xa;" style="text;align=left;verticalAlign=top;spacingLeft=4;spacingRight=4;overflow=hidden;rotatable=0;points=[[0,0.5],[1,0.5]];portConstraint=eastwest;whiteSpace=wrap;" parent="QMGaQ8mJVQ0FRmpl6Mxn-44" vertex="1">
          <mxGeometry y="48" width="450" height="52" as="geometry" />
        </mxCell>
        <mxCell id="HJsQ4uH5PGLxtLiYPZns-0" value="Mamifero" style="swimlane;fontStyle=2;align=center;verticalAlign=top;childLayout=stackLayout;horizontal=1;startSize=26;horizontalStack=0;resizeParent=1;resizeLast=0;collapsible=1;marginBottom=0;rounded=0;shadow=0;strokeWidth=1;" parent="WIyWlLk6GJQsqaUBKTNV-1" vertex="1">
          <mxGeometry x="-376" y="450" width="790" height="130" as="geometry">
            <mxRectangle x="230" y="140" width="160" height="26" as="alternateBounds" />
          </mxGeometry>
        </mxCell>
        <mxCell id="HJsQ4uH5PGLxtLiYPZns-1" value="- peso: double &#xa;- tiempoDeGestacion: int &#xa;- enPeligroDeExtincion: boolean&#xa;" style="text;align=left;verticalAlign=top;spacingLeft=4;spacingRight=4;overflow=hidden;rotatable=0;points=[[0,0.5],[1,0.5]];portConstraint=eastwest;rounded=0;shadow=0;html=0;whiteSpace=wrap;" parent="HJsQ4uH5PGLxtLiYPZns-0" vertex="1">
          <mxGeometry y="26" width="790" height="54" as="geometry" />
        </mxCell>
        <mxCell id="HJsQ4uH5PGLxtLiYPZns-2" value="" style="line;html=1;strokeWidth=1;align=left;verticalAlign=middle;spacingTop=-1;spacingLeft=3;spacingRight=3;rotatable=0;labelPosition=right;points=[];portConstraint=eastwest;" parent="HJsQ4uH5PGLxtLiYPZns-0" vertex="1">
          <mxGeometry y="80" width="790" height="8" as="geometry" />
        </mxCell>
        <mxCell id="HJsQ4uH5PGLxtLiYPZns-3" value="+ Mamifero(nombreCientifico: String, habitat: String, esperanzaDeVida: int, peso: double, tiempoDeGestacion: int, enPeligroDeExtincion: boolean) &#xa;+ getDatosMamifero(): String&#xa;" style="text;align=left;verticalAlign=top;spacingLeft=4;spacingRight=4;overflow=hidden;rotatable=0;points=[[0,0.5],[1,0.5]];portConstraint=eastwest;whiteSpace=wrap;" parent="HJsQ4uH5PGLxtLiYPZns-0" vertex="1">
          <mxGeometry y="88" width="790" height="42" as="geometry" />
        </mxCell>
        <mxCell id="KNQ7yuj--ivzD6RCi9Jk-0" value="" style="endArrow=open;endSize=12;dashed=1;html=1;rounded=0;exitX=0.51;exitY=1.006;exitDx=0;exitDy=0;entryX=0.5;entryY=0;entryDx=0;entryDy=0;exitPerimeter=0;" parent="WIyWlLk6GJQsqaUBKTNV-1" source="QMGaQ8mJVQ0FRmpl6Mxn-47" target="QMGaQ8mJVQ0FRmpl6Mxn-31" edge="1">
          <mxGeometry width="160" relative="1" as="geometry">
            <mxPoint x="289" y="100" as="sourcePoint" />
            <mxPoint x="449" y="100" as="targetPoint" />
          </mxGeometry>
        </mxCell>
        <mxCell id="KNQ7yuj--ivzD6RCi9Jk-3" value="" style="html=1;verticalAlign=bottom;endArrow=block;curved=0;rounded=0;exitX=0.5;exitY=1;exitDx=0;exitDy=0;entryX=0.5;entryY=0;entryDx=0;entryDy=0;" parent="WIyWlLk6GJQsqaUBKTNV-1" source="QMGaQ8mJVQ0FRmpl6Mxn-31" target="HJsQ4uH5PGLxtLiYPZns-0" edge="1">
          <mxGeometry width="80" relative="1" as="geometry">
            <mxPoint x="159" y="450" as="sourcePoint" />
            <mxPoint x="239" y="450" as="targetPoint" />
          </mxGeometry>
        </mxCell>
        <mxCell id="2-KJJTo1CF_QtCVWQxO9-0" value="Animal          " style="swimlane;fontStyle=2;align=center;verticalAlign=top;childLayout=stackLayout;horizontal=1;startSize=26;horizontalStack=0;resizeParent=1;resizeLast=0;collapsible=1;marginBottom=0;rounded=0;shadow=0;strokeWidth=1;" vertex="1" parent="WIyWlLk6GJQsqaUBKTNV-1">
          <mxGeometry x="310" y="200" width="390" height="130" as="geometry">
            <mxRectangle x="230" y="140" width="160" height="26" as="alternateBounds" />
          </mxGeometry>
        </mxCell>
        <mxCell id="2-KJJTo1CF_QtCVWQxO9-1" value="- nombreCientifico: String &#xa;- habitat: String &#xa;- esperanzaDeVida: int&#xa;" style="text;align=left;verticalAlign=top;spacingLeft=4;spacingRight=4;overflow=hidden;rotatable=0;points=[[0,0.5],[1,0.5]];portConstraint=eastwest;rounded=0;shadow=0;html=0;whiteSpace=wrap;" vertex="1" parent="2-KJJTo1CF_QtCVWQxO9-0">
          <mxGeometry y="26" width="390" height="54" as="geometry" />
        </mxCell>
        <mxCell id="2-KJJTo1CF_QtCVWQxO9-2" value="" style="line;html=1;strokeWidth=1;align=left;verticalAlign=middle;spacingTop=-1;spacingLeft=3;spacingRight=3;rotatable=0;labelPosition=right;points=[];portConstraint=eastwest;" vertex="1" parent="2-KJJTo1CF_QtCVWQxO9-0">
          <mxGeometry y="80" width="390" height="8" as="geometry" />
        </mxCell>
        <mxCell id="2-KJJTo1CF_QtCVWQxO9-3" value="+ Animal(String nombreCientifico, String habitat, int esperanzaDeVida)&#xa;+ getDatosGenerales(): String&#xa;" style="text;align=left;verticalAlign=top;spacingLeft=4;spacingRight=4;overflow=hidden;rotatable=0;points=[[0,0.5],[1,0.5]];portConstraint=eastwest;whiteSpace=wrap;" vertex="1" parent="2-KJJTo1CF_QtCVWQxO9-0">
          <mxGeometry y="88" width="390" height="32" as="geometry" />
        </mxCell>
        <mxCell id="2-KJJTo1CF_QtCVWQxO9-9" value="" style="endArrow=block;endSize=16;endFill=0;html=1;rounded=0;exitX=1;exitY=0;exitDx=0;exitDy=0;entryX=0.5;entryY=1;entryDx=0;entryDy=0;" edge="1" parent="WIyWlLk6GJQsqaUBKTNV-1" source="HJsQ4uH5PGLxtLiYPZns-0" target="2-KJJTo1CF_QtCVWQxO9-0">
          <mxGeometry width="160" relative="1" as="geometry">
            <mxPoint x="500" y="450" as="sourcePoint" />
            <mxPoint x="660" y="450" as="targetPoint" />
          </mxGeometry>
        </mxCell>
        <mxCell id="2-KJJTo1CF_QtCVWQxO9-10" value="Felinos" style="swimlane;fontStyle=2;align=center;verticalAlign=top;childLayout=stackLayout;horizontal=1;startSize=26;horizontalStack=0;resizeParent=1;resizeLast=0;collapsible=1;marginBottom=0;rounded=0;shadow=0;strokeWidth=1;" vertex="1" parent="WIyWlLk6GJQsqaUBKTNV-1">
          <mxGeometry x="-990" y="670" width="1000" height="130" as="geometry">
            <mxRectangle x="230" y="140" width="160" height="26" as="alternateBounds" />
          </mxGeometry>
        </mxCell>
        <mxCell id="2-KJJTo1CF_QtCVWQxO9-11" value="- especie: String &#xa;- colorPelaje: String  &#xa;" style="text;align=left;verticalAlign=top;spacingLeft=4;spacingRight=4;overflow=hidden;rotatable=0;points=[[0,0.5],[1,0.5]];portConstraint=eastwest;rounded=0;shadow=0;html=0;whiteSpace=wrap;" vertex="1" parent="2-KJJTo1CF_QtCVWQxO9-10">
          <mxGeometry y="26" width="1000" height="34" as="geometry" />
        </mxCell>
        <mxCell id="2-KJJTo1CF_QtCVWQxO9-12" value="" style="line;html=1;strokeWidth=1;align=left;verticalAlign=middle;spacingTop=-1;spacingLeft=3;spacingRight=3;rotatable=0;labelPosition=right;points=[];portConstraint=eastwest;" vertex="1" parent="2-KJJTo1CF_QtCVWQxO9-10">
          <mxGeometry y="60" width="1000" height="8" as="geometry" />
        </mxCell>
        <mxCell id="2-KJJTo1CF_QtCVWQxO9-13" value="+ Felinos(nombreCientifico: String, habitat: String, esperanzaDeVida: int, peso: double, tiempoDeGestacion: int, enPeligroDeExtincion: boolean, especie: String, colorPelaje: String) &#xa;+ calcularAlimentoDiario(): String &#xa;+ getDatosFelino(): String &#xa;" style="text;align=left;verticalAlign=top;spacingLeft=4;spacingRight=4;overflow=hidden;rotatable=0;points=[[0,0.5],[1,0.5]];portConstraint=eastwest;whiteSpace=wrap;" vertex="1" parent="2-KJJTo1CF_QtCVWQxO9-10">
          <mxGeometry y="68" width="1000" height="62" as="geometry" />
        </mxCell>
        <mxCell id="2-KJJTo1CF_QtCVWQxO9-14" value="" style="endArrow=block;endSize=16;endFill=0;html=1;rounded=0;exitX=0.5;exitY=0;exitDx=0;exitDy=0;entryX=0;entryY=0.998;entryDx=0;entryDy=0;entryPerimeter=0;" edge="1" parent="WIyWlLk6GJQsqaUBKTNV-1" source="2-KJJTo1CF_QtCVWQxO9-10" target="HJsQ4uH5PGLxtLiYPZns-3">
          <mxGeometry x="0.0012" width="160" relative="1" as="geometry">
            <mxPoint x="-190" y="630" as="sourcePoint" />
            <mxPoint x="-30" y="630" as="targetPoint" />
            <mxPoint as="offset" />
          </mxGeometry>
        </mxCell>
        <mxCell id="2-KJJTo1CF_QtCVWQxO9-16" value="Primates        " style="swimlane;fontStyle=2;align=center;verticalAlign=top;childLayout=stackLayout;horizontal=1;startSize=26;horizontalStack=0;resizeParent=1;resizeLast=0;collapsible=1;marginBottom=0;rounded=0;shadow=0;strokeWidth=1;" vertex="1" parent="WIyWlLk6GJQsqaUBKTNV-1">
          <mxGeometry x="40" y="670" width="1000" height="130" as="geometry">
            <mxRectangle x="230" y="140" width="160" height="26" as="alternateBounds" />
          </mxGeometry>
        </mxCell>
        <mxCell id="2-KJJTo1CF_QtCVWQxO9-17" value="- especie: String &#xa;- nivelInteligencia: int&#xa;" style="text;align=left;verticalAlign=top;spacingLeft=4;spacingRight=4;overflow=hidden;rotatable=0;points=[[0,0.5],[1,0.5]];portConstraint=eastwest;rounded=0;shadow=0;html=0;whiteSpace=wrap;" vertex="1" parent="2-KJJTo1CF_QtCVWQxO9-16">
          <mxGeometry y="26" width="1000" height="34" as="geometry" />
        </mxCell>
        <mxCell id="2-KJJTo1CF_QtCVWQxO9-18" value="" style="line;html=1;strokeWidth=1;align=left;verticalAlign=middle;spacingTop=-1;spacingLeft=3;spacingRight=3;rotatable=0;labelPosition=right;points=[];portConstraint=eastwest;" vertex="1" parent="2-KJJTo1CF_QtCVWQxO9-16">
          <mxGeometry y="60" width="1000" height="8" as="geometry" />
        </mxCell>
        <mxCell id="2-KJJTo1CF_QtCVWQxO9-19" value="+ Primates(nombreCientifico: String, habitat: String, esperanzaDeVida: int, peso: double, tiempoDeGestacion: int, enPeligroDeExtincion: boolean, especie: String, nivelInteligencia: int) &#xa;+ calcularAlimentoDiario(): String &#xa;+ getDatosPrimate(): String&#xa;" style="text;align=left;verticalAlign=top;spacingLeft=4;spacingRight=4;overflow=hidden;rotatable=0;points=[[0,0.5],[1,0.5]];portConstraint=eastwest;whiteSpace=wrap;" vertex="1" parent="2-KJJTo1CF_QtCVWQxO9-16">
          <mxGeometry y="68" width="1000" height="62" as="geometry" />
        </mxCell>
        <mxCell id="2-KJJTo1CF_QtCVWQxO9-20" value="" style="endArrow=block;endSize=16;endFill=0;html=1;rounded=0;exitX=0.5;exitY=0;exitDx=0;exitDy=0;entryX=1;entryY=1;entryDx=0;entryDy=0;entryPerimeter=0;" edge="1" parent="WIyWlLk6GJQsqaUBKTNV-1" source="2-KJJTo1CF_QtCVWQxO9-16" target="HJsQ4uH5PGLxtLiYPZns-3">
          <mxGeometry x="0.0012" width="160" relative="1" as="geometry">
            <mxPoint x="196" y="660" as="sourcePoint" />
            <mxPoint x="310" y="570" as="targetPoint" />
            <mxPoint as="offset" />
          </mxGeometry>
        </mxCell>
      </root>
    </mxGraphModel>
  </diagram>
</mxfile>
